<?xml version="1.0" encoding="utf-8"?>
<!-- Generator: Adobe Illustrator 24.1.1, SVG Export Plug-In . SVG Version: 6.00 Build 0)  -->
<svg version="1.1" id="Camada_1" xmlns="http://www.w3.org/2000/svg" xmlns:xlink="http://www.w3.org/1999/xlink" x="0px" y="0px"
	 viewBox="0 0 500 500" style="enable-background:new 0 0 500 500;" xml:space="preserve">
<style type="text/css">
	.st0{fill:#8800FF;}
</style>
<g>
	<path class="st0" d="M497.2,255.2c-2.3,13-10,22.5-19.1,31.6c-65.7,65.4-131.3,131.1-196.8,196.7c-10.8,10.8-23.3,16.4-38.8,14
		c-9.3-1.5-17-5.9-23.5-12.4C151,416.9,82.8,348.9,14.8,280.7c-21.6-21.7-15.9-54.7,11-68c15.6-7.7,34.7-3.8,48.7,10.1
		c26.4,26.3,52.7,52.7,79.1,79c30.6,30.6,61.1,61.1,91.7,91.7c1.2,1.2,2.2,2.8,3.3,4.2c0.7,0.3,1.4,0.5,2.1,0.8c1-1.7,1.7-3.6,3-5
		c56.6-56.7,113.4-113.4,170-170.1C434,213,446,207.3,461,209.3c18,2.4,31.9,15.6,35.4,33.5c0.2,0.9,0.5,1.8,0.8,2.7
		C497.2,248.7,497.2,252,497.2,255.2z"/>
</g>
<g>
	<path class="st0" d="M438.2,2.5c8.3,2.2,16.2,4.7,23.1,10.3c17.7,14.2,20.8,40.8,5.8,57.6c-8.5,9.5-18,18-27.3,26.8
		C390.9,143.6,342,190,293.1,236.3c-16.1,15.3-36.4,18.3-55.6,8c-3.8-2-7.3-4.8-10.4-7.8C170.6,183,114,129.4,57.6,75.7
		c-15.9-15.1-18.9-34.7-8-52.6C56.2,12.2,66.4,6.1,78.7,3.4c1.1-0.2,2.2-0.6,3.2-0.9c3.5,0,7.1,0,10.6,0
		C106.7,4.6,117,12.9,127,22.5c43.1,41.2,86.5,82.2,129.7,123.2c1,1,2.1,1.9,3.4,3c1.6-1.5,3-2.8,4.4-4.1
		c42.8-40.6,85.7-81.1,128.3-121.9c9.8-9.4,20-17.7,33.8-20.1C430.5,2.5,434.3,2.5,438.2,2.5z"/>
</g>
</svg>
