<?xml version="1.0" encoding="utf-8"?>
<!-- Generator: Adobe Illustrator 24.1.1, SVG Export Plug-In . SVG Version: 6.00 Build 0)  -->
<svg version="1.1" id="Camada_1" xmlns="http://www.w3.org/2000/svg" xmlns:xlink="http://www.w3.org/1999/xlink" x="0px" y="0px"
	 viewBox="0 0 1500 500" style="enable-background:new 0 0 1500 500;" xml:space="preserve">
<style type="text/css">
	.st0{fill:#8800FF;}
	.st1{fill:#191919;}
</style>
<g>
	<path class="st0" d="M186.9,316.4c12.2-7,23.5-13.6,34.9-20.2c52.2-30.2,104.5-60.3,156.8-90.4c2.9-1.7,3.5-3.2,2.3-6.2
		c-22-54-61.4-86.8-119.4-94.3c-71.5-9.2-136.8,34.3-157.6,103.2c-8.2,27.3-7.4,60.5,0.7,87.8l0,0C82,309.1,55.4,325,33,337.9
		c-1.3,0.8-2.7,1.4-4.4,2.4c-0.9-1.8-1.7-3.3-2.4-4.9C-7.7,249.5,12.5,151,78,85.4c38.2-38.4,84.5-61,138.4-67.3
		c98.3-11.5,192.1,39.2,236.5,127.7c10.8,21.5,19,48.2,21.7,72.2c0,0-0.2,0.2-2.6,1.6c-61.6,35.5-123,71.5-184.9,106.4
		c-32.1,18.1-64.2,15.6-94.8-5.1C190.6,319.7,189.1,318.2,186.9,316.4z"/>
</g>
<g>
	<path class="st0" d="M474.1,285.6c-9.3,74.5-68.3,166.1-176.9,191.7c-101.4,23.8-193.8-23-239.2-86.4c4-2.4,8.1-4.8,12.1-7.1
		c20.1-11.6,40.3-23.2,60.3-34.9c3.2-1.9,3.3-1.9,3.3-1.9c46.5,49.3,124,63.2,182.8,29.4c51.1-29.4,102.1-58.9,153.1-88.3
		C471,287.3,472.3,286.6,474.1,285.6z"/>
</g>
<g>
	<path class="st0" d="M300.3,183.6c-47.5,27.4-94.6,54.6-141.8,81.9c-6.9-21.9,0.9-62.3,33.1-86C227.5,153,274.8,159.8,300.3,183.6z
		"/>
</g>
<g>
	<path class="st1" d="M587.3,132.1v74c6.8-5.6,14.4-10.1,22.6-13.7c8.2-3.5,16.9-5.3,25.8-5.3c12,0,23.3,2.3,34,6.9
		c10.7,4.6,20.1,10.9,28.1,18.8c8,7.9,14.3,17.3,18.9,28.1c4.6,10.8,6.9,22.3,6.9,34.6c0,12-2.3,23.4-6.9,34.1
		c-4.6,10.7-10.9,20.1-18.8,28.1c-7.9,8-17.2,14.4-27.9,19s-22.2,6.9-34.3,6.9c-9,0-17.5-1.8-25.7-5.3c-8.1-3.6-15.7-8.3-22.8-14.1
		v13H539V132.1H587.3z M586,275.3c0,6.2,1.2,12,3.5,17.5c2.4,5.4,5.5,10.1,9.5,14.1c4,3.9,8.7,7.1,14.2,9.5
		c5.5,2.4,11.3,3.5,17.5,3.5c6.2,0,12.1-1.2,17.5-3.5c5.5-2.4,10.2-5.5,14.2-9.5c4-3.9,7.1-8.7,9.5-14.1c2.4-5.4,3.5-11.3,3.5-17.5
		c0-6.2-1.2-12-3.5-17.5c-2.4-5.4-5.5-10.1-9.5-14.1c-4-3.9-8.7-7.1-14.2-9.5c-5.5-2.4-11.3-3.5-17.5-3.5c-6.2,0-12.1,1.2-17.5,3.5
		c-5.5,2.4-10.2,5.5-14.2,9.5c-4,3.9-7.1,8.7-9.5,14.1C587.1,263.3,586,269.2,586,275.3z"/>
	<path class="st1" d="M921.2,193.5v163.7H873v-13c-6.9,5.8-14.4,10.5-22.5,14.1c-8.2,3.6-16.7,5.3-25.7,5.3
		c-12.2,0-23.8-2.3-34.6-6.9c-10.8-4.6-20.2-10.9-28.2-19c-7.9-8-14.2-17.4-18.8-28.1c-4.6-10.7-6.9-22.1-6.9-34.1
		c0-12.2,2.4-23.7,7.1-34.6c4.7-10.8,11.1-20.2,19.1-28.1c8-7.9,17.4-14.2,28.2-18.8c10.7-4.6,22.1-6.9,34.1-6.9
		c9,0,17.6,1.8,25.7,5.3c8.1,3.5,15.7,8.1,22.5,13.7v-12.5H921.2z M829.8,319.9c6,0,11.7-1.2,17.2-3.5c5.5-2.4,10.2-5.5,14.3-9.5
		c4.1-3.9,7.3-8.7,9.7-14.1c2.4-5.4,3.5-11.3,3.5-17.5c0-6.2-1.2-12-3.5-17.5c-2.4-5.4-5.6-10.1-9.7-14.1c-4.1-3.9-8.8-7.1-14.3-9.5
		c-5.5-2.4-11.2-3.5-17.2-3.5c-6.2,0-12.1,1.2-17.5,3.5c-5.5,2.4-10.2,5.5-14.2,9.5c-4,3.9-7.1,8.7-9.5,14.1
		c-2.4,5.4-3.5,11.3-3.5,17.5c0,6.2,1.2,12,3.5,17.5c2.4,5.4,5.5,10.1,9.5,14.1c4,3.9,8.7,7.1,14.2,9.5
		C817.8,318.7,823.6,319.9,829.8,319.9z"/>
	<path class="st1" d="M1046.4,187.1c9.7,0,18.7,1.8,27,5.5c8.4,3.6,15.7,8.6,22,15c6.3,6.3,11.3,13.7,15,22c3.6,8.4,5.5,17.4,5.5,27
		v100.6h-48.3v-91.3c0-4.7-1-9.2-2.9-13.5c-1.9-4.3-4.5-8-7.7-11.3s-7-5.7-11.3-7.6c-4.3-1.8-8.8-2.7-13.5-2.7
		c-4.9,0-9.5,1-13.8,2.9c-4.3,1.9-8,4.5-11.3,7.7c-3.2,3.2-5.8,7-7.7,11.3c-1.9,4.3-2.9,8.9-2.9,13.8v90.7h-48.3V193.5h48.3v18.6
		c6.6-7.5,14.1-13.6,22.4-18.2C1027.1,189.4,1036.3,187.1,1046.4,187.1z"/>
	<path class="st1" d="M1246.8,357.2l-58.6-57.6v57.6H1140V132.1h48.3v118.3l54.1-56.9h59.5l-76.9,80.7l84.9,83H1246.8z"/>
	<path class="st1" d="M1415.1,388.4c-5.1,11.6-10.7,21-16.6,28.3c-5.9,7.3-12.2,12.9-19,16.9c-6.8,4-14,6.7-21.7,8.2
		c-7.7,1.5-15.9,2.3-24.5,2.3c-9.9,0-19.3-1.5-28.3-4.5l10-44.1c3,1.7,6.1,2.9,9.2,3.7c3.1,0.7,6.2,1.1,9.2,1.1v0.3
		c4.1,0,7.9-0.3,11.6-1c3.6-0.6,7.1-1.9,10.3-3.7c3.2-1.8,6.2-4.5,9-7.9c2.8-3.4,5.5-8,8-13.8l6.8-17h-9.7l-64.4-163.7h50.8
		l42.5,111.9l42.8-111.9h50.8L1415.1,388.4z"/>
</g>
</svg>
