<svg cache-id="2e4a31d04d634eeab1f79b16b34094a7" id="e2oTMc4Q15Y1" xmlns="http://www.w3.org/2000/svg" xmlns:xlink="http://www.w3.org/1999/xlink" viewBox="0 0 500 500" shape-rendering="geometricPrecision" text-rendering="geometricPrecision">
<style><![CDATA[
#e2oTMc4Q15Y2 {animation: e2oTMc4Q15Y2_c_o 4500ms linear infinite normal forwards}@keyframes e2oTMc4Q15Y2_c_o { 0% {opacity: 1;animation-timing-function: cubic-bezier(0.42,0,0.58,1)} 22.222222% {opacity: 0;animation-timing-function: cubic-bezier(0.42,0,0.58,1)} 44.444444% {opacity: 1} 66.666667% {opacity: 0;animation-timing-function: cubic-bezier(0.42,0,0.58,1)} 88.888889% {opacity: 1} 100% {opacity: 1}} #e2oTMc4Q15Y4 {animation: e2oTMc4Q15Y4_c_o 4500ms linear infinite normal forwards}@keyframes e2oTMc4Q15Y4_c_o { 0% {opacity: 1} 11.111111% {opacity: 1} 33.333333% {opacity: 0} 55.555556% {opacity: 1} 77.777778% {opacity: 0} 100% {opacity: 1}}
]]></style>
<g id="e2oTMc4Q15Y2"><path d="M497.2,255.2c-2.3,13-10,22.5-19.1,31.6-65.7,65.4-131.3,131.1-196.8,196.7-10.8,10.8-23.3,16.4-38.8,14-9.3-1.5-17-5.9-23.5-12.4C151,416.9,82.8,348.9,14.8,280.7c-21.6-21.7-15.9-54.7,11-68c15.6-7.7,34.7-3.8,48.7,10.1c26.4,26.3,52.7,52.7,79.1,79c30.6,30.6,61.1,61.1,91.7,91.7c1.2,1.2,2.2,2.8,3.3,4.2.7.3,1.4.5,2.1.8c1-1.7,1.7-3.6,3-5c56.6-56.7,113.4-113.4,170-170.1C434,213,446,207.3,461,209.3c18,2.4,31.9,15.6,35.4,33.5.2.9.5,1.8.8,2.7c0,3.2,0,6.5,0,9.7Z" fill="#80f"/></g><g id="e2oTMc4Q15Y4"><path d="M438.2,2.5c8.3,2.2,16.2,4.7,23.1,10.3C479,27,482.1,53.6,467.1,70.4c-8.5,9.5-18,18-27.3,26.8C390.9,143.6,342,190,293.1,236.3c-16.1,15.3-36.4,18.3-55.6,8-3.8-2-7.3-4.8-10.4-7.8C170.6,183,114,129.4,57.6,75.7C41.7,60.6,38.7,41,49.6,23.1c6.6-10.9,16.8-17,29.1-19.7c1.1-.2,2.2-.6,3.2-.9c3.5,0,7.1,0,10.6,0c14.2,2.1,24.5,10.4,34.5,20c43.1,41.2,86.5,82.2,129.7,123.2c1,1,2.1,1.9,3.4,3c1.6-1.5,3-2.8,4.4-4.1C307.3,104,350.2,63.5,392.8,22.7c9.8-9.4,20-17.7,33.8-20.1c3.9-.1,7.7-.1,11.6-.1Z" fill="#80f"/></g></svg>
